<mxfile host="app.diagrams.net" agent="Mozilla/5.0 (Macintosh; Intel Mac OS X 10_15_7) AppleWebKit/537.36 (KHTML, like Gecko) Chrome/127.0.0.0 Safari/537.36 Edg/127.0.0.0" version="24.7.7">
  <diagram id="C5RBs43oDa-KdzZeNtuy" name="Page-1">
    <mxGraphModel dx="2630" dy="1094" grid="1" gridSize="10" guides="1" tooltips="1" connect="1" arrows="1" fold="1" page="1" pageScale="1" pageWidth="827" pageHeight="1169" math="0" shadow="0">
      <root>
        <mxCell id="WIyWlLk6GJQsqaUBKTNV-0" />
        <mxCell id="WIyWlLk6GJQsqaUBKTNV-1" parent="WIyWlLk6GJQsqaUBKTNV-0" />
        <mxCell id="sWWA4bZMYuXRyUqMkDCf-0" value="" style="endArrow=none;dashed=1;html=1;rounded=0;strokeWidth=2;" parent="WIyWlLk6GJQsqaUBKTNV-1" edge="1">
          <mxGeometry width="50" height="50" relative="1" as="geometry">
            <mxPoint x="-290" y="880" as="sourcePoint" />
            <mxPoint x="720" y="880" as="targetPoint" />
          </mxGeometry>
        </mxCell>
        <mxCell id="sWWA4bZMYuXRyUqMkDCf-1" value="" style="rounded=0;whiteSpace=wrap;html=1;fillColor=#99CCFF;" parent="WIyWlLk6GJQsqaUBKTNV-1" vertex="1">
          <mxGeometry x="-150" y="300" width="860" height="70" as="geometry" />
        </mxCell>
        <mxCell id="sWWA4bZMYuXRyUqMkDCf-2" value="拍拍贷" style="rounded=0;whiteSpace=wrap;html=1;" parent="WIyWlLk6GJQsqaUBKTNV-1" vertex="1">
          <mxGeometry x="-22.5" y="315" width="90" height="40" as="geometry" />
        </mxCell>
        <mxCell id="sWWA4bZMYuXRyUqMkDCf-3" value="分期乐" style="rounded=0;whiteSpace=wrap;html=1;" parent="WIyWlLk6GJQsqaUBKTNV-1" vertex="1">
          <mxGeometry x="178" y="315" width="90" height="40" as="geometry" />
        </mxCell>
        <mxCell id="sWWA4bZMYuXRyUqMkDCf-4" value="" style="endArrow=none;dashed=1;html=1;rounded=0;strokeWidth=2;" parent="WIyWlLk6GJQsqaUBKTNV-1" edge="1">
          <mxGeometry width="50" height="50" relative="1" as="geometry">
            <mxPoint x="330" y="444.8888888888889" as="sourcePoint" />
            <mxPoint x="990" y="440" as="targetPoint" />
          </mxGeometry>
        </mxCell>
        <mxCell id="sWWA4bZMYuXRyUqMkDCf-8" value="" style="endArrow=none;dashed=1;html=1;rounded=0;strokeWidth=2;" parent="WIyWlLk6GJQsqaUBKTNV-1" edge="1">
          <mxGeometry width="50" height="50" relative="1" as="geometry">
            <mxPoint x="-160" y="330" as="sourcePoint" />
            <mxPoint x="-160" y="1320" as="targetPoint" />
          </mxGeometry>
        </mxCell>
        <mxCell id="sWWA4bZMYuXRyUqMkDCf-9" value="BFF层 &lt;br&gt;xyf-api-gateway/&lt;div&gt;ugchanprod&lt;/div&gt;" style="rounded=0;whiteSpace=wrap;html=1;fillColor=#CCCCFF;" parent="WIyWlLk6GJQsqaUBKTNV-1" vertex="1">
          <mxGeometry x="-280" y="467.5" width="100" height="65" as="geometry" />
        </mxCell>
        <mxCell id="sWWA4bZMYuXRyUqMkDCf-10" value="" style="rounded=0;whiteSpace=wrap;html=1;fillColor=#F7CDA0;" parent="WIyWlLk6GJQsqaUBKTNV-1" vertex="1">
          <mxGeometry x="-150" y="450" width="860" height="100" as="geometry" />
        </mxCell>
        <mxCell id="sWWA4bZMYuXRyUqMkDCf-11" value="" style="endArrow=none;dashed=1;html=1;rounded=0;strokeWidth=2;" parent="WIyWlLk6GJQsqaUBKTNV-1" edge="1">
          <mxGeometry width="50" height="50" relative="1" as="geometry">
            <mxPoint x="-290" y="560" as="sourcePoint" />
            <mxPoint x="720" y="560" as="targetPoint" />
          </mxGeometry>
        </mxCell>
        <mxCell id="sWWA4bZMYuXRyUqMkDCf-12" value="apiopfcore" style="rounded=0;whiteSpace=wrap;html=1;fillColor=#CCCCFF;" parent="WIyWlLk6GJQsqaUBKTNV-1" vertex="1">
          <mxGeometry x="-280" y="580" width="100" height="280" as="geometry" />
        </mxCell>
        <mxCell id="sWWA4bZMYuXRyUqMkDCf-13" value="" style="rounded=0;whiteSpace=wrap;html=1;fillColor=#FBCCCC;" parent="WIyWlLk6GJQsqaUBKTNV-1" vertex="1">
          <mxGeometry x="730" y="300" width="230" height="70" as="geometry" />
        </mxCell>
        <mxCell id="sWWA4bZMYuXRyUqMkDCf-14" value="监控告警" style="rounded=0;whiteSpace=wrap;html=1;fillColor=#d5e8d4;strokeColor=#82b366;" parent="WIyWlLk6GJQsqaUBKTNV-1" vertex="1">
          <mxGeometry x="800" y="315" width="90" height="40" as="geometry" />
        </mxCell>
        <mxCell id="sWWA4bZMYuXRyUqMkDCf-16" value="" style="rounded=0;whiteSpace=wrap;html=1;fillColor=#CCFFE6;" parent="WIyWlLk6GJQsqaUBKTNV-1" vertex="1">
          <mxGeometry x="-150" y="580" width="860" height="280" as="geometry" />
        </mxCell>
        <mxCell id="sWWA4bZMYuXRyUqMkDCf-18" value="" style="rounded=0;whiteSpace=wrap;html=1;fillColor=#f8cecc;strokeColor=#b85450;" parent="WIyWlLk6GJQsqaUBKTNV-1" vertex="1">
          <mxGeometry x="730" y="390" width="240" height="930" as="geometry" />
        </mxCell>
        <mxCell id="sWWA4bZMYuXRyUqMkDCf-23" value="收单" style="rounded=0;whiteSpace=wrap;html=1;fillColor=#008a00;strokeColor=#005700;fontColor=#ffffff;" parent="WIyWlLk6GJQsqaUBKTNV-1" vertex="1">
          <mxGeometry y="651.5" width="90" height="40" as="geometry" />
        </mxCell>
        <mxCell id="sWWA4bZMYuXRyUqMkDCf-24" value="上报风险挑战项" style="rounded=0;whiteSpace=wrap;html=1;fillColor=#008a00;strokeColor=#005700;fontColor=#ffffff;" parent="WIyWlLk6GJQsqaUBKTNV-1" vertex="1">
          <mxGeometry x="120" y="651.5" width="90" height="40" as="geometry" />
        </mxCell>
        <mxCell id="sWWA4bZMYuXRyUqMkDCf-25" value="激活" style="rounded=0;whiteSpace=wrap;html=1;fillColor=#008a00;strokeColor=#005700;fontColor=#ffffff;" parent="WIyWlLk6GJQsqaUBKTNV-1" vertex="1">
          <mxGeometry y="713" width="90" height="40" as="geometry" />
        </mxCell>
        <mxCell id="sWWA4bZMYuXRyUqMkDCf-26" value="贷前绑卡" style="rounded=0;whiteSpace=wrap;html=1;fillColor=#008a00;strokeColor=#005700;fontColor=#ffffff;" parent="WIyWlLk6GJQsqaUBKTNV-1" vertex="1">
          <mxGeometry x="120" y="713" width="90" height="40" as="geometry" />
        </mxCell>
        <mxCell id="sWWA4bZMYuXRyUqMkDCf-28" value="sls日志" style="rounded=0;whiteSpace=wrap;html=1;fillColor=#fff2cc;strokeColor=#d6b656;" parent="WIyWlLk6GJQsqaUBKTNV-1" vertex="1">
          <mxGeometry x="750" y="570" width="90" height="40" as="geometry" />
        </mxCell>
        <mxCell id="sWWA4bZMYuXRyUqMkDCf-29" value="非200响应告警" style="rounded=0;whiteSpace=wrap;html=1;fillColor=#d5e8d4;strokeColor=#82b366;" parent="WIyWlLk6GJQsqaUBKTNV-1" vertex="1">
          <mxGeometry x="860" y="640" width="90" height="40" as="geometry" />
        </mxCell>
        <mxCell id="sWWA4bZMYuXRyUqMkDCf-30" value="请求下游失败告警" style="rounded=0;whiteSpace=wrap;html=1;fillColor=#d5e8d4;strokeColor=#82b366;" parent="WIyWlLk6GJQsqaUBKTNV-1" vertex="1">
          <mxGeometry x="860" y="787" width="90" height="40" as="geometry" />
        </mxCell>
        <mxCell id="sWWA4bZMYuXRyUqMkDCf-31" value="prometheus" style="rounded=0;whiteSpace=wrap;html=1;fillColor=#fff2cc;strokeColor=#d6b656;" parent="WIyWlLk6GJQsqaUBKTNV-1" vertex="1">
          <mxGeometry x="750" y="640" width="90" height="40" as="geometry" />
        </mxCell>
        <mxCell id="sWWA4bZMYuXRyUqMkDCf-32" value="grafana" style="rounded=0;whiteSpace=wrap;html=1;fillColor=#fff2cc;strokeColor=#d6b656;" parent="WIyWlLk6GJQsqaUBKTNV-1" vertex="1">
          <mxGeometry x="750" y="713" width="90" height="40" as="geometry" />
        </mxCell>
        <mxCell id="sWWA4bZMYuXRyUqMkDCf-33" value="cat" style="rounded=0;whiteSpace=wrap;html=1;fillColor=#fff2cc;strokeColor=#d6b656;" parent="WIyWlLk6GJQsqaUBKTNV-1" vertex="1">
          <mxGeometry x="750" y="787" width="90" height="40" as="geometry" />
        </mxCell>
        <mxCell id="sWWA4bZMYuXRyUqMkDCf-34" value="慢sql" style="rounded=0;whiteSpace=wrap;html=1;fillColor=#d5e8d4;strokeColor=#82b366;" parent="WIyWlLk6GJQsqaUBKTNV-1" vertex="1">
          <mxGeometry x="860" y="860" width="90" height="40" as="geometry" />
        </mxCell>
        <mxCell id="sWWA4bZMYuXRyUqMkDCf-35" value="队列堆积告警" style="rounded=0;whiteSpace=wrap;html=1;fillColor=#d5e8d4;strokeColor=#82b366;" parent="WIyWlLk6GJQsqaUBKTNV-1" vertex="1">
          <mxGeometry x="860" y="934" width="90" height="40" as="geometry" />
        </mxCell>
        <mxCell id="sWWA4bZMYuXRyUqMkDCf-36" value="中间件&amp;amp;存储" style="rounded=0;whiteSpace=wrap;html=1;fillColor=#CCCCFF;" parent="WIyWlLk6GJQsqaUBKTNV-1" vertex="1">
          <mxGeometry x="-280" y="889" width="100" height="141" as="geometry" />
        </mxCell>
        <mxCell id="sWWA4bZMYuXRyUqMkDCf-37" value="" style="endArrow=none;dashed=1;html=1;rounded=0;strokeWidth=2;" parent="WIyWlLk6GJQsqaUBKTNV-1" edge="1">
          <mxGeometry width="50" height="50" relative="1" as="geometry">
            <mxPoint x="-290" y="1040" as="sourcePoint" />
            <mxPoint x="720" y="1040" as="targetPoint" />
          </mxGeometry>
        </mxCell>
        <mxCell id="sWWA4bZMYuXRyUqMkDCf-38" value="" style="rounded=0;whiteSpace=wrap;html=1;fillColor=#A4CBFB;" parent="WIyWlLk6GJQsqaUBKTNV-1" vertex="1">
          <mxGeometry x="-150" y="889" width="860" height="141" as="geometry" />
        </mxCell>
        <mxCell id="sWWA4bZMYuXRyUqMkDCf-40" value="依赖服务" style="rounded=0;whiteSpace=wrap;html=1;fillColor=#CCCCFF;" parent="WIyWlLk6GJQsqaUBKTNV-1" vertex="1">
          <mxGeometry x="-280" y="1050" width="100" height="131" as="geometry" />
        </mxCell>
        <mxCell id="sWWA4bZMYuXRyUqMkDCf-41" value="" style="rounded=0;whiteSpace=wrap;html=1;fillColor=#A5DEDF;" parent="WIyWlLk6GJQsqaUBKTNV-1" vertex="1">
          <mxGeometry x="-150" y="1050" width="860" height="141" as="geometry" />
        </mxCell>
        <mxCell id="sWWA4bZMYuXRyUqMkDCf-42" value="mysql" style="shape=cylinder3;whiteSpace=wrap;html=1;boundedLbl=1;backgroundOutline=1;size=15;" parent="WIyWlLk6GJQsqaUBKTNV-1" vertex="1">
          <mxGeometry x="180" y="919.5" width="60" height="80" as="geometry" />
        </mxCell>
        <mxCell id="sWWA4bZMYuXRyUqMkDCf-43" value="" style="endArrow=none;dashed=1;html=1;rounded=0;strokeWidth=2;" parent="WIyWlLk6GJQsqaUBKTNV-1" edge="1">
          <mxGeometry width="50" height="50" relative="1" as="geometry">
            <mxPoint x="-290" y="1205" as="sourcePoint" />
            <mxPoint x="720" y="1205" as="targetPoint" />
          </mxGeometry>
        </mxCell>
        <mxCell id="sWWA4bZMYuXRyUqMkDCf-44" value="devops" style="rounded=0;whiteSpace=wrap;html=1;fillColor=#CCCCFF;" parent="WIyWlLk6GJQsqaUBKTNV-1" vertex="1">
          <mxGeometry x="-280" y="1210" width="100" height="110" as="geometry" />
        </mxCell>
        <mxCell id="sWWA4bZMYuXRyUqMkDCf-45" value="" style="rounded=0;whiteSpace=wrap;html=1;fillColor=#E6FFCC;" parent="WIyWlLk6GJQsqaUBKTNV-1" vertex="1">
          <mxGeometry x="-150" y="1210" width="860" height="110" as="geometry" />
        </mxCell>
        <mxCell id="sWWA4bZMYuXRyUqMkDCf-46" value="jenkins" style="rounded=0;whiteSpace=wrap;html=1;" parent="WIyWlLk6GJQsqaUBKTNV-1" vertex="1">
          <mxGeometry x="-32.5" y="1246.5" width="110" height="37" as="geometry" />
        </mxCell>
        <mxCell id="sWWA4bZMYuXRyUqMkDCf-47" value="ecs/k8s" style="rounded=0;whiteSpace=wrap;html=1;" parent="WIyWlLk6GJQsqaUBKTNV-1" vertex="1">
          <mxGeometry x="178" y="1246.5" width="110" height="37" as="geometry" />
        </mxCell>
        <mxCell id="sWWA4bZMYuXRyUqMkDCf-49" value="贷中绑卡" style="rounded=0;whiteSpace=wrap;html=1;" parent="WIyWlLk6GJQsqaUBKTNV-1" vertex="1">
          <mxGeometry x="260" y="651.5" width="90" height="40" as="geometry" />
        </mxCell>
        <mxCell id="sWWA4bZMYuXRyUqMkDCf-50" value="接口耗时监控" style="rounded=0;whiteSpace=wrap;html=1;fillColor=#d5e8d4;strokeColor=#82b366;" parent="WIyWlLk6GJQsqaUBKTNV-1" vertex="1">
          <mxGeometry x="860" y="1010" width="90" height="40" as="geometry" />
        </mxCell>
        <mxCell id="sWWA4bZMYuXRyUqMkDCf-51" value="系统异常告警" style="rounded=0;whiteSpace=wrap;html=1;fillColor=#d5e8d4;strokeColor=#82b366;" parent="WIyWlLk6GJQsqaUBKTNV-1" vertex="1">
          <mxGeometry x="860" y="713" width="90" height="40" as="geometry" />
        </mxCell>
        <mxCell id="sWWA4bZMYuXRyUqMkDCf-54" value="redis" style="shape=datastore;whiteSpace=wrap;html=1;" parent="WIyWlLk6GJQsqaUBKTNV-1" vertex="1">
          <mxGeometry x="-100" y="934" width="60" height="60" as="geometry" />
        </mxCell>
        <mxCell id="sWWA4bZMYuXRyUqMkDCf-55" value="风控服务" style="rounded=0;whiteSpace=wrap;html=1;" parent="WIyWlLk6GJQsqaUBKTNV-1" vertex="1">
          <mxGeometry x="-60" y="1072" width="90" height="40" as="geometry" />
        </mxCell>
        <mxCell id="sWWA4bZMYuXRyUqMkDCf-56" value="资金系统" style="rounded=0;whiteSpace=wrap;html=1;" parent="WIyWlLk6GJQsqaUBKTNV-1" vertex="1">
          <mxGeometry x="210" y="1072" width="90" height="40" as="geometry" />
        </mxCell>
        <mxCell id="sWWA4bZMYuXRyUqMkDCf-57" value="支付系统" style="rounded=0;whiteSpace=wrap;html=1;" parent="WIyWlLk6GJQsqaUBKTNV-1" vertex="1">
          <mxGeometry x="368.5" y="1072" width="90" height="40" as="geometry" />
        </mxCell>
        <mxCell id="sWWA4bZMYuXRyUqMkDCf-58" value="XDTS" style="rounded=0;whiteSpace=wrap;html=1;" parent="WIyWlLk6GJQsqaUBKTNV-1" vertex="1">
          <mxGeometry x="530" y="1072" width="90" height="40" as="geometry" />
        </mxCell>
        <mxCell id="sWWA4bZMYuXRyUqMkDCf-59" value="借款引擎" style="rounded=0;whiteSpace=wrap;html=1;" parent="WIyWlLk6GJQsqaUBKTNV-1" vertex="1">
          <mxGeometry x="-60" y="1130" width="90" height="40" as="geometry" />
        </mxCell>
        <mxCell id="sWWA4bZMYuXRyUqMkDCf-60" value="账务服务" style="rounded=0;whiteSpace=wrap;html=1;" parent="WIyWlLk6GJQsqaUBKTNV-1" vertex="1">
          <mxGeometry x="67.5" y="1072" width="90" height="40" as="geometry" />
        </mxCell>
        <mxCell id="sWWA4bZMYuXRyUqMkDCf-61" value="还款引擎" style="rounded=0;whiteSpace=wrap;html=1;" parent="WIyWlLk6GJQsqaUBKTNV-1" vertex="1">
          <mxGeometry x="67.5" y="1130" width="90" height="40" as="geometry" />
        </mxCell>
        <mxCell id="sWWA4bZMYuXRyUqMkDCf-62" value="业务指标监控" style="rounded=0;whiteSpace=wrap;html=1;fillColor=#d5e8d4;strokeColor=#82b366;" parent="WIyWlLk6GJQsqaUBKTNV-1" vertex="1">
          <mxGeometry x="860" y="1080" width="90" height="40" as="geometry" />
        </mxCell>
        <mxCell id="sWWA4bZMYuXRyUqMkDCf-63" value="JVM监控" style="rounded=0;whiteSpace=wrap;html=1;fillColor=#d5e8d4;strokeColor=#82b366;" parent="WIyWlLk6GJQsqaUBKTNV-1" vertex="1">
          <mxGeometry x="860" y="570" width="90" height="40" as="geometry" />
        </mxCell>
        <mxCell id="sWWA4bZMYuXRyUqMkDCf-64" value="对接渠道" style="rounded=0;whiteSpace=wrap;html=1;fillColor=#CCCCFF;" parent="WIyWlLk6GJQsqaUBKTNV-1" vertex="1">
          <mxGeometry x="-280" y="315" width="100" height="40" as="geometry" />
        </mxCell>
        <mxCell id="sWWA4bZMYuXRyUqMkDCf-65" value="告警方式" style="rounded=0;whiteSpace=wrap;html=1;fillColor=#fff2cc;strokeColor=#d6b656;" parent="WIyWlLk6GJQsqaUBKTNV-1" vertex="1">
          <mxGeometry x="750" y="500" width="90" height="40" as="geometry" />
        </mxCell>
        <mxCell id="sWWA4bZMYuXRyUqMkDCf-66" value="告警维度" style="rounded=0;whiteSpace=wrap;html=1;fillColor=#d5e8d4;strokeColor=#82b366;" parent="WIyWlLk6GJQsqaUBKTNV-1" vertex="1">
          <mxGeometry x="860" y="500" width="90" height="40" as="geometry" />
        </mxCell>
        <mxCell id="sWWA4bZMYuXRyUqMkDCf-68" value="还呗" style="rounded=0;whiteSpace=wrap;html=1;" parent="WIyWlLk6GJQsqaUBKTNV-1" vertex="1">
          <mxGeometry x="369" y="315" width="90" height="40" as="geometry" />
        </mxCell>
        <mxCell id="sWWA4bZMYuXRyUqMkDCf-69" value="……" style="rounded=0;whiteSpace=wrap;html=1;" parent="WIyWlLk6GJQsqaUBKTNV-1" vertex="1">
          <mxGeometry x="513" y="315" width="90" height="40" as="geometry" />
        </mxCell>
        <mxCell id="sWWA4bZMYuXRyUqMkDCf-71" value="接收渠道请求&lt;br&gt;通知回调渠道" style="rounded=0;whiteSpace=wrap;html=1;" parent="WIyWlLk6GJQsqaUBKTNV-1" vertex="1">
          <mxGeometry x="-22.5" y="480" width="90" height="40" as="geometry" />
        </mxCell>
        <mxCell id="sWWA4bZMYuXRyUqMkDCf-72" value="整合业务流程" style="rounded=0;whiteSpace=wrap;html=1;" parent="WIyWlLk6GJQsqaUBKTNV-1" vertex="1">
          <mxGeometry x="150" y="480" width="90" height="40" as="geometry" />
        </mxCell>
        <mxCell id="sWWA4bZMYuXRyUqMkDCf-73" value="屏蔽渠道差异" style="rounded=0;whiteSpace=wrap;html=1;" parent="WIyWlLk6GJQsqaUBKTNV-1" vertex="1">
          <mxGeometry x="340" y="480" width="90" height="40" as="geometry" />
        </mxCell>
        <mxCell id="sWWA4bZMYuXRyUqMkDCf-74" value="对账文件处理" style="rounded=0;whiteSpace=wrap;html=1;" parent="WIyWlLk6GJQsqaUBKTNV-1" vertex="1">
          <mxGeometry x="511" y="480" width="90" height="40" as="geometry" />
        </mxCell>
        <mxCell id="sWWA4bZMYuXRyUqMkDCf-75" value="xxl job" style="rounded=0;whiteSpace=wrap;html=1;" parent="WIyWlLk6GJQsqaUBKTNV-1" vertex="1">
          <mxGeometry x="310" y="945.5" width="110" height="37" as="geometry" />
        </mxCell>
        <mxCell id="sWWA4bZMYuXRyUqMkDCf-76" value="rocketmq" style="strokeWidth=2;html=1;shape=mxgraph.flowchart.direct_data;whiteSpace=wrap;" parent="WIyWlLk6GJQsqaUBKTNV-1" vertex="1">
          <mxGeometry x="20" y="934" width="100" height="60" as="geometry" />
        </mxCell>
        <mxCell id="sWWA4bZMYuXRyUqMkDCf-77" value="CIS" style="rounded=0;whiteSpace=wrap;html=1;" parent="WIyWlLk6GJQsqaUBKTNV-1" vertex="1">
          <mxGeometry x="210" y="1130" width="90" height="40" as="geometry" />
        </mxCell>
        <mxCell id="sWWA4bZMYuXRyUqMkDCf-78" value="合同系统" style="rounded=0;whiteSpace=wrap;html=1;" parent="WIyWlLk6GJQsqaUBKTNV-1" vertex="1">
          <mxGeometry x="369" y="1130" width="90" height="40" as="geometry" />
        </mxCell>
        <mxCell id="sWWA4bZMYuXRyUqMkDCf-79" value="KYC系统" style="rounded=0;whiteSpace=wrap;html=1;" parent="WIyWlLk6GJQsqaUBKTNV-1" vertex="1">
          <mxGeometry x="530" y="1130" width="90" height="40" as="geometry" />
        </mxCell>
        <mxCell id="sWWA4bZMYuXRyUqMkDCf-80" value="订单校验" style="rounded=0;whiteSpace=wrap;html=1;" parent="WIyWlLk6GJQsqaUBKTNV-1" vertex="1">
          <mxGeometry x="260" y="748.5" width="90" height="40" as="geometry" />
        </mxCell>
        <mxCell id="sWWA4bZMYuXRyUqMkDCf-81" value="借款试算" style="rounded=0;whiteSpace=wrap;html=1;" parent="WIyWlLk6GJQsqaUBKTNV-1" vertex="1">
          <mxGeometry x="369" y="651.5" width="90" height="40" as="geometry" />
        </mxCell>
        <mxCell id="sWWA4bZMYuXRyUqMkDCf-82" value="还款申请" style="rounded=0;whiteSpace=wrap;html=1;" parent="WIyWlLk6GJQsqaUBKTNV-1" vertex="1">
          <mxGeometry x="600" y="651.5" width="90" height="40" as="geometry" />
        </mxCell>
        <mxCell id="sWWA4bZMYuXRyUqMkDCf-83" value="还款计划" style="rounded=0;whiteSpace=wrap;html=1;" parent="WIyWlLk6GJQsqaUBKTNV-1" vertex="1">
          <mxGeometry x="600" y="747" width="90" height="40" as="geometry" />
        </mxCell>
        <mxCell id="sWWA4bZMYuXRyUqMkDCf-84" value="撞库" style="rounded=0;whiteSpace=wrap;html=1;" parent="WIyWlLk6GJQsqaUBKTNV-1" vertex="1">
          <mxGeometry x="-130" y="651.5" width="90" height="40" as="geometry" />
        </mxCell>
        <mxCell id="sWWA4bZMYuXRyUqMkDCf-85" value="借款申请" style="rounded=0;whiteSpace=wrap;html=1;" parent="WIyWlLk6GJQsqaUBKTNV-1" vertex="1">
          <mxGeometry x="370" y="748.5" width="90" height="40" as="geometry" />
        </mxCell>
        <mxCell id="sWWA4bZMYuXRyUqMkDCf-86" value="还款试算" style="rounded=0;whiteSpace=wrap;html=1;" parent="WIyWlLk6GJQsqaUBKTNV-1" vertex="1">
          <mxGeometry x="491" y="651.5" width="90" height="40" as="geometry" />
        </mxCell>
        <mxCell id="sWWA4bZMYuXRyUqMkDCf-87" value="" style="endArrow=none;dashed=1;html=1;rounded=0;strokeWidth=2;" parent="WIyWlLk6GJQsqaUBKTNV-1" edge="1">
          <mxGeometry width="50" height="50" relative="1" as="geometry">
            <mxPoint x="-22.5" y="640" as="sourcePoint" />
            <mxPoint x="-22.5" y="800" as="targetPoint" />
          </mxGeometry>
        </mxCell>
        <mxCell id="sWWA4bZMYuXRyUqMkDCf-88" value="" style="endArrow=none;dashed=1;html=1;rounded=0;strokeWidth=2;" parent="WIyWlLk6GJQsqaUBKTNV-1" edge="1">
          <mxGeometry width="50" height="50" relative="1" as="geometry">
            <mxPoint x="240" y="640" as="sourcePoint" />
            <mxPoint x="240" y="800" as="targetPoint" />
          </mxGeometry>
        </mxCell>
        <mxCell id="sWWA4bZMYuXRyUqMkDCf-89" value="" style="endArrow=none;dashed=1;html=1;rounded=0;strokeWidth=2;" parent="WIyWlLk6GJQsqaUBKTNV-1" edge="1">
          <mxGeometry width="50" height="50" relative="1" as="geometry">
            <mxPoint x="480" y="640" as="sourcePoint" />
            <mxPoint x="480" y="800" as="targetPoint" />
          </mxGeometry>
        </mxCell>
        <mxCell id="sWWA4bZMYuXRyUqMkDCf-91" value="" style="endArrow=none;dashed=1;html=1;rounded=0;strokeWidth=2;" parent="WIyWlLk6GJQsqaUBKTNV-1" edge="1">
          <mxGeometry width="50" height="50" relative="1" as="geometry">
            <mxPoint x="-290" y="440" as="sourcePoint" />
            <mxPoint x="300" y="444.87603305785115" as="targetPoint" />
          </mxGeometry>
        </mxCell>
        <mxCell id="VIJz2uPGF6avBVxXJ3ea-0" value="" style="shape=image;verticalLabelPosition=bottom;labelBackgroundColor=default;verticalAlign=top;aspect=fixed;imageAspect=0;image=https://miro.medium.com/v2/resize:fit:800/1*XE0ObomSZ6cwRHKNZ751Vg.png;" parent="WIyWlLk6GJQsqaUBKTNV-1" vertex="1">
          <mxGeometry x="478" y="938.4000000000001" width="160" height="55.6" as="geometry" />
        </mxCell>
        <mxCell id="VIJz2uPGF6avBVxXJ3ea-1" value="" style="endArrow=none;dashed=1;html=1;rounded=0;strokeWidth=2;" parent="WIyWlLk6GJQsqaUBKTNV-1" edge="1">
          <mxGeometry width="50" height="50" relative="1" as="geometry">
            <mxPoint x="-280" y="380" as="sourcePoint" />
            <mxPoint x="980" y="380" as="targetPoint" />
          </mxGeometry>
        </mxCell>
        <mxCell id="VIJz2uPGF6avBVxXJ3ea-3" value="" style="rounded=0;whiteSpace=wrap;html=1;fillColor=#e1d5e7;strokeColor=#9673a6;" parent="WIyWlLk6GJQsqaUBKTNV-1" vertex="1">
          <mxGeometry x="-150" y="390" width="860" height="40" as="geometry" />
        </mxCell>
        <mxCell id="VIJz2uPGF6avBVxXJ3ea-4" value="网关层" style="rounded=0;whiteSpace=wrap;html=1;fillColor=#CCCCFF;" parent="WIyWlLk6GJQsqaUBKTNV-1" vertex="1">
          <mxGeometry x="-280" y="390" width="100" height="40" as="geometry" />
        </mxCell>
        <mxCell id="VIJz2uPGF6avBVxXJ3ea-5" value="KONG" style="rounded=0;whiteSpace=wrap;html=1;" parent="WIyWlLk6GJQsqaUBKTNV-1" vertex="1">
          <mxGeometry x="220" y="395" width="90" height="30" as="geometry" />
        </mxCell>
        <mxCell id="XegBzm43TF2em2KgTWJF-0" value="还款结果查询" style="rounded=0;whiteSpace=wrap;html=1;" vertex="1" parent="WIyWlLk6GJQsqaUBKTNV-1">
          <mxGeometry x="491" y="747" width="90" height="40" as="geometry" />
        </mxCell>
        <mxCell id="XegBzm43TF2em2KgTWJF-1" value="熔断&amp;nbsp; &amp;nbsp; &amp;nbsp; &amp;nbsp; &amp;nbsp; &amp;nbsp;限流&amp;nbsp; &amp;nbsp; &amp;nbsp; &amp;nbsp; &amp;nbsp; 降级" style="rounded=0;whiteSpace=wrap;html=1;fillColor=#e1d5e7;strokeColor=#9673a6;fontSize=15;" vertex="1" parent="WIyWlLk6GJQsqaUBKTNV-1">
          <mxGeometry x="-140" y="590" width="840" height="40" as="geometry" />
        </mxCell>
        <mxCell id="XegBzm43TF2em2KgTWJF-2" value="用户数据认证" style="rounded=0;whiteSpace=wrap;html=1;fillColor=#008a00;strokeColor=#005700;fontColor=#ffffff;" vertex="1" parent="WIyWlLk6GJQsqaUBKTNV-1">
          <mxGeometry y="780" width="90" height="40" as="geometry" />
        </mxCell>
      </root>
    </mxGraphModel>
  </diagram>
</mxfile>
